<?xml version="1.0" encoding="UTF-8"?>
<!DOCTYPE svg PUBLIC "-//W3C//DTD SVG 1.1//EN" "http://www.w3.org/Graphics/SVG/1.1/DTD/svg11.dtd">
<!-- Creator: CorelDRAW X7 -->
<svg xmlns="http://www.w3.org/2000/svg" xml:space="preserve" width="3.35999in" height="0.839992in" version="1.1" style="shape-rendering:geometricPrecision; text-rendering:geometricPrecision; image-rendering:optimizeQuality; fill-rule:evenodd; clip-rule:evenodd"
viewBox="0 0 3360 840"
 xmlns:xlink="http://www.w3.org/1999/xlink">
 <defs>
  <style type="text/css">
   <![CDATA[
    .str0 {stroke:#1F1A17;stroke-width:3}
    .fil2 {fill:none}
    .fil5 {fill:#A9ABAE}
    .fil3 {fill:#1F1A17}
    .fil4 {fill:#ABA8A8}
    .fil7 {fill:#D9261C}
    .fil1 {fill:white}
    .fil9 {fill:#ED3237;fill-rule:nonzero}
    .fil8 {fill:#3E4095;fill-rule:nonzero}
    .fil0 {fill:#1F1A17;fill-rule:nonzero}
    .fil6 {fill:white;fill-rule:nonzero}
   ]]>
  </style>
 </defs>
 <g id="Layer_x0020_1">
  <metadata id="CorelCorpID_0Corel-Layer"/>
  <g id="_237767840">
   <g>
    <g>
     <path class="fil0" d="M394 775c-77,-53 -153,-108 -208,-199l13 -9c53,88 128,142 203,194l-8 14zm-208 -199c-54,-91 -87,-217 -76,-412l16 1c-11,190 20,313 73,402l-13 9zm-76 -412l1 -11 9 3 -2 9 -8 -1zm10 -8c66,22 119,31 164,29l0 17c-46,2 -101,-7 -168,-29l4 -17zm164 29c44,-1 79,-11 108,-28l7 15c-31,18 -68,29 -115,30l0 -17zm108 -28l4 -2 3 2 -3 8 -4 -8zm7 0c30,17 66,27 111,28l-1 17c-47,-1 -85,-12 -117,-30l7 -15zm111 28c45,2 99,-7 165,-29l4 17c-67,22 -123,31 -170,29l1 -17zm165 -29l9 -3 1 11 -8 1 -2 -9zm10 8c11,195 -21,321 -76,412l-13 -9c53,-89 84,-212 73,-402l16 -1zm-76 412c-54,91 -130,146 -207,199l-8 -14c75,-52 150,-106 202,-194l13 9zm-207 199l-4 3 -4 -3 4 -7 4 7z"/>
     <path class="fil1" d="M398 768c-152,-105 -302,-218 -280,-603 133,44 217,34 278,0 61,34 148,44 281,0 22,385 -127,498 -279,603z"/>
     <path class="fil2 str0" d="M324 710c24,-6 52,-8 75,-8 -23,0 -51,2 -75,8 1,6 1,13 1,19 -66,1 -109,38 -151,77 -19,20 -34,25 -45,15 -28,-23 -57,-45 -66,-67 0,-7 1,-13 1,-19 4,-13 12,-6 20,-3 7,7 15,13 22,20 23,-31 60,-55 106,-74 0,-8 -1,-18 8,-17 45,-19 99,-32 171,-35 77,3 136,16 183,35 9,-1 7,9 8,17 46,19 83,43 105,74 8,-7 15,-13 23,-20 7,-3 15,-10 20,3 0,6 0,12 1,19 -9,22 -39,44 -66,67 -12,10 -27,5 -46,-15 -42,-39 -85,-76 -151,-77 1,-6 1,-13 1,-19 -23,-6 -46,-8 -70,-8m-4 -76c1,0 0,0 2,0 -1,0 -2,0 -2,0z"/>
     <g>
      <path class="fil3" d="M324 710c24,-6 52,-8 75,-8 -23,0 -51,2 -75,8 1,6 1,13 1,19 -66,1 -109,38 -151,77 -19,20 -34,25 -45,15 -28,-23 -57,-45 -66,-67 0,-7 1,-13 1,-19 4,-13 12,-6 20,-3 7,7 15,13 22,20 23,-31 60,-55 106,-74 0,-8 -1,-18 8,-17 45,-19 99,-32 171,-35 77,3 136,16 183,35 9,-1 7,9 8,17 46,19 83,43 105,74 8,-7 15,-13 23,-20 7,-3 15,-10 20,3 0,6 0,12 1,19 -9,22 -39,44 -66,67 -12,10 -27,5 -46,-15 -42,-39 -85,-76 -151,-77 1,-6 1,-13 1,-19 -23,-6 -46,-8 -70,-8l-75 8zm71 -84c1,0 0,0 2,0 -1,0 -2,0 -2,0z"/>
     </g>
     <path class="fil2 str0" d="M396 691c-60,2 -116,12 -173,33 0,-18 0,-35 0,-53 57,-21 112,-30 172,-32 60,2 119,11 175,32 0,18 0,35 0,53 -56,-21 -115,-31 -174,-33z"/>
     <path class="fil4" d="M396 691c-60,2 -116,12 -173,33 0,-18 0,-35 0,-53 57,-21 112,-30 172,-32 60,2 119,11 175,32 0,18 0,35 0,53 -56,-21 -115,-31 -174,-33z"/>
     <path class="fil2 str0" d="M118 756c26,-26 55,-49 91,-64 1,11 1,22 1,33 -1,6 1,10 8,11 7,1 15,2 22,2 -29,23 -57,47 -80,70 -14,15 -22,14 -24,-2 0,-10 -1,-21 -2,-31 -5,-6 -11,-13 -16,-19z"/>
     <path class="fil4" d="M118 756c26,-26 55,-49 91,-64 1,11 1,22 1,33 -1,6 1,10 8,11 7,1 15,2 22,2 -29,23 -57,47 -80,70 -14,15 -22,14 -24,-2 0,-10 -1,-21 -2,-31 -5,-6 -11,-13 -16,-19z"/>
     <polygon class="fil2 str0" points="72,757 74,739 125,781 126,806 "/>
     <polygon class="fil4" points="72,757 74,739 125,781 126,806 "/>
     <path class="fil2 str0" d="M676 756c-27,-26 -55,-49 -92,-64 0,11 0,22 -1,33 2,6 -1,10 -7,11 -8,1 -15,2 -23,2 29,23 58,47 80,70 15,15 22,14 24,-2 1,-10 2,-21 3,-31 5,-6 10,-13 16,-19z"/>
     <path class="fil4" d="M676 756c-27,-26 -55,-49 -92,-64 0,11 0,22 -1,33 2,6 -1,10 -7,11 -8,1 -15,2 -23,2 29,23 58,47 80,70 15,15 22,14 24,-2 1,-10 2,-21 3,-31 5,-6 10,-13 16,-19z"/>
     <polygon class="fil2 str0" points="722,757 720,739 669,781 667,806 "/>
     <polygon class="fil4" points="722,757 720,739 669,781 667,806 "/>
     <path class="fil2 str0" d="M551 726c-5,-5 -18,-10 -40,-15 -6,-1 -37,-2 -30,7 3,3 4,3 8,3 21,1 41,3 62,5z"/>
     <path class="fil4" d="M551 726c-5,-5 -18,-10 -40,-15 -6,-1 -37,-2 -30,7 3,3 4,3 8,3 21,1 41,3 62,5z"/>
     <path class="fil2 str0" d="M242 726c6,-5 18,-10 41,-15 6,-1 37,-2 29,7 -2,3 -4,3 -7,3 -21,1 -42,3 -63,5z"/>
     <path class="fil4" d="M242 726c6,-5 18,-10 41,-15 6,-1 37,-2 29,7 -2,3 -4,3 -7,3 -21,1 -42,3 -63,5z"/>
     <path class="fil5" d="M399 206c95,0 173,87 173,194 0,106 -78,193 -173,193 -96,0 -174,-87 -174,-193 0,-107 78,-194 174,-194z"/>
     <path class="fil1" d="M262 280l273 0c6,8 11,17 15,25l-303 0c5,-8 10,-17 15,-25z"/>
     <path class="fil1" d="M234 338l329 0c3,8 5,17 6,25l-341 0c2,-8 4,-17 6,-25z"/>
     <path class="fil1" d="M225 396l347 0c0,1 0,2 0,4 0,7 0,14 -1,21l-345 0c-1,-7 -1,-14 -1,-21 0,-2 0,-3 0,-4z"/>
     <path class="fil1" d="M231 449l336 0c-2,8 -5,17 -8,25l-321 0c-3,-8 -5,-17 -7,-25z"/>
     <path class="fil1" d="M251 502l295 0c-5,9 -10,17 -17,25l-261 0c-6,-8 -12,-16 -17,-25z"/>
     <path class="fil1" d="M295 555l207 0c-12,10 -25,18 -40,25l-127 0c-14,-7 -28,-15 -40,-25z"/>
     <path class="fil1" d="M317 229l163 0c12,7 23,15 33,25l-228 0c10,-10 20,-18 32,-25z"/>
     <path class="fil1" d="M379 208c-81,117 -69,247 -6,383 -9,-1 -18,-4 -26,-7 -57,-122 -61,-245 -4,-368 11,-4 23,-7 35,-8l1 0z"/>
     <path class="fil1" d="M418 208c81,117 70,247 6,383 9,-1 18,-4 27,-7 56,-122 61,-245 3,-368 -11,-4 -23,-7 -35,-8l-1 0z"/>
     <path class="fil1" d="M391 206l0 387c2,0 5,0 8,0 2,0 5,0 8,0l0 -387c-3,0 -6,0 -8,0l0 0c-3,0 -6,0 -8,0z"/>
     <path class="fil6" d="M282 513c22,-6 44,-14 61,-28l6 9c-18,15 -42,24 -65,30l-2 -11zm61 -28c16,-14 27,-34 26,-61l11 0c0,31 -12,54 -31,70l-6 -9zm26 -61c0,-22 2,-40 9,-55l9 5c-6,13 -8,30 -7,50l-11 0zm9 -55c7,-16 19,-29 39,-41l5 10c-18,10 -29,22 -35,36l-9 -5zm39 -41c0,0 1,-1 1,-1l2 6 -3 -5zm1 -1c2,0 4,-1 6,-2l4 10c-2,1 -4,2 -6,3l-4 -11zm6 -2c34,-17 68,-33 103,-43l2 11c-33,10 -67,26 -101,42l-4 -10zm103 -43c5,-1 8,8 3,10l-2 -4 -1 -6zm3 10l-59 38 -6 -10 60 -37 5 9zm-59 38c0,0 0,0 0,0l-3 -5 3 5zm0 0c-15,8 -24,17 -30,29l-9 -5c7,-15 18,-25 34,-34l5 10zm-30 29c-7,13 -9,30 -10,56l-10 0c0,-28 3,-47 11,-61l9 5zm-10 56c-1,45 -20,60 -37,74l-6 -10c15,-12 32,-25 33,-64l10 0zm-37 74c-4,3 -8,6 -11,9l-7 -8c4,-4 8,-7 12,-11l6 10zm-11 9c0,0 -1,1 -2,1l-2 -5 4 4zm-2 1c-15,8 -31,15 -47,20l-3 -10c16,-5 31,-12 46,-20l4 10zm-47 20c-17,6 -34,9 -51,9l0 -11c16,-1 32,-4 48,-8l3 10zm-51 9c0,0 -2,0 -2,0l2 -6 0 6zm-2 0c-5,-2 -7,-5 -6,-9l10 2c0,3 -2,-4 -1,-4l-3 11zm-6 -9c0,-2 2,-5 6,-6l4 10c0,0 0,-3 0,-2l-10 -2zm6 -6c0,0 0,0 1,0l1 5 -2 -5z"/>
     <path class="fil7" d="M283 518c45,-10 93,-35 92,-94 -1,-42 7,-68 45,-91 36,-17 72,-35 108,-45 -20,12 -40,25 -60,37 -30,17 -41,36 -42,90 -1,53 -29,62 -47,79 -30,16 -62,28 -96,28 -5,-1 -4,-2 0,-4z"/>
     <path class="fil6" d="M401 253l0 0 0 8 0 0 0 -8zm0 0c8,0 15,4 20,9l-5 6c-4,-5 -9,-7 -15,-7l0 -8zm20 9c5,6 8,13 8,22l-7 0c0,-7 -2,-12 -6,-16l5 -6zm8 22l0 0 -7 0 0 0 7 0zm0 0l0 0 -7 0 0 0 7 0zm0 0c0,8 -3,16 -8,21l-5 -5c4,-4 6,-10 6,-16l7 0zm-8 21c-5,6 -12,9 -20,9l0 -7c6,0 11,-3 15,-7l5 5zm-20 9l0 0 0 -7 0 0 0 7zm0 0l0 0 0 -7 0 0 0 7zm0 0c-8,0 -15,-3 -20,-9l5 -5c4,4 9,7 15,7l0 7zm-20 -9c-5,-5 -8,-13 -8,-21l7 0c0,6 2,12 6,16l-5 5zm-8 -21l0 0 7 0 0 0 -7 0zm0 0l0 0 7 0 0 0 -7 0zm0 0c0,-9 3,-16 8,-22l5 5c-4,5 -6,10 -6,17l-7 0zm8 -22c5,-5 12,-9 20,-9l0 8c-6,0 -11,2 -15,6l-5 -5zm20 -9l0 0 0 8 0 0 0 -8z"/>
     <path class="fil7" d="M401 257c13,0 24,12 24,27 0,15 -11,27 -24,27 -14,0 -25,-12 -25,-27 0,-15 11,-27 25,-27z"/>
    </g>
    <g>
     <path class="fil8" d="M1069 294l-97 0 0 -31c0,-15 -2,-25 -4,-29 -3,-4 -7,-6 -13,-6 -6,0 -11,3 -14,8 -3,6 -5,14 -5,25 0,15 2,25 6,33 3,7 13,15 29,26 47,29 76,53 88,72 12,19 18,49 18,91 0,31 -3,53 -10,68 -6,14 -19,27 -39,36 -19,10 -41,15 -67,15 -27,0 -51,-6 -71,-17 -20,-11 -33,-26 -39,-43 -6,-18 -9,-42 -9,-74l0 -28 97 0 0 52c0,16 1,26 4,31 3,4 8,6 15,6 6,0 12,-2 15,-8 3,-6 5,-15 5,-26 0,-25 -3,-42 -10,-50 -6,-7 -23,-20 -48,-38 -26,-19 -44,-32 -52,-40 -8,-9 -15,-20 -21,-35 -6,-14 -8,-33 -8,-56 0,-33 4,-57 11,-72 8,-15 21,-27 38,-35 18,-9 39,-13 64,-13 27,0 50,4 69,14 19,9 32,21 38,35 7,14 10,38 10,72l0 17zm301 -129l0 428 -105 0 0 -180 -31 0 0 180 -105 0 0 -428 105 0 0 153 31 0 0 -153 105 0zm61 0l74 0c49,0 82,2 100,6 17,4 32,14 43,31 11,17 16,43 16,80 0,33 -4,55 -12,67 -7,11 -23,18 -45,20 20,6 34,13 41,22 7,10 12,18 13,26 2,7 3,28 3,63l0 113 -97 0 0 -142c0,-23 -2,-37 -5,-43 -3,-5 -12,-8 -27,-8l0 193 -104 0 0 -428zm104 73l0 95c12,0 20,-1 25,-5 5,-3 7,-15 7,-33l0 -24c0,-14 -2,-22 -7,-27 -4,-4 -13,-6 -25,-6zm189 -73l174 0 0 85 -70 0 0 82 66 0 0 81 -66 0 0 94 77 0 0 86 -181 0 0 -428zm230 0l175 0 0 85 -70 0 0 82 65 0 0 81 -65 0 0 94 77 0 0 86 -182 0 0 -428zm231 0l78 0c51,0 85,2 102,7 18,5 32,13 41,24 9,12 15,24 17,38 3,14 4,41 4,82l0 150c0,38 -2,64 -5,77 -4,13 -10,23 -18,30 -9,8 -19,13 -31,16 -13,3 -31,4 -56,4l-132 0 0 -428zm104 73l0 282c15,0 25,-4 28,-10 4,-6 5,-24 5,-52l0 -167c0,-19 0,-32 -1,-37 -2,-6 -4,-10 -8,-12 -4,-3 -12,-4 -24,-4zm436 -73l0 428 -104 0 0 -180 -31 0 0 180 -105 0 0 -428 105 0 0 153 31 0 0 -153 104 0zm242 0l60 428 -107 0 -5 -77 -38 0 -6 77 -108 0 53 -428 151 0zm-55 275c-6,-48 -11,-108 -16,-180 -11,82 -18,142 -20,180l36 0zm152 -275l74 0c49,0 82,2 100,6 17,4 32,14 43,31 11,17 16,43 16,80 0,33 -4,55 -12,67 -7,11 -23,18 -45,20 20,6 34,13 41,22 7,10 12,18 13,26 2,7 3,28 3,63l0 113 -97 0 0 -142c0,-23 -2,-37 -5,-43 -3,-5 -12,-8 -27,-8l0 193 -104 0 0 -428zm104 73l0 95c12,0 20,-1 25,-5 5,-3 7,-15 7,-33l0 -24c0,-14 -2,-22 -7,-27 -4,-4 -13,-6 -25,-6z"/>
     <path class="fil8" d="M898 674l0 145 -55 0 0 -145 55 0zm216 0l0 145 -47 0 -28 -66 0 66 -46 0 0 -145 46 0 30 65 0 -65 45 0zm205 0l0 29 -32 0 0 116 -54 0 0 -116 -32 0 0 -29 118 0zm87 0l90 0 0 29 -36 0 0 27 34 0 0 28 -34 0 0 32 40 0 0 29 -94 0 0 -145zm183 0l39 0c25,0 43,1 52,2 9,2 16,5 22,11 6,5 8,14 8,27 0,11 -2,18 -6,22 -4,4 -12,7 -24,7 11,2 18,5 22,8 4,3 6,6 7,8 1,3 1,10 1,22l0 38 -50 0 0 -48c0,-8 -1,-13 -3,-15 -1,-1 -6,-2 -14,-2l0 65 -54 0 0 -145zm54 25l0 32c7,0 11,-1 13,-2 3,-1 4,-5 4,-11l0 -8c0,-5 -1,-8 -4,-9 -2,-1 -6,-2 -13,-2zm283 -25l0 145 -47 0 -28 -66 0 66 -46 0 0 -145 46 0 30 65 0 -65 45 0zm190 0l31 145 -56 0 -2 -26 -20 0 -3 26 -56 0 27 -145 79 0zm-29 93c-3,-16 -5,-36 -8,-61 -6,28 -9,48 -11,61l19 0zm238 -93l0 29 -32 0 0 116 -55 0 0 -116 -32 0 0 -29 119 0zm140 0l0 145 -54 0 0 -145 54 0zm220 85c0,14 0,25 -1,31 -1,6 -5,11 -10,16 -5,5 -12,9 -21,12 -9,3 -19,4 -31,4 -11,0 -21,-1 -30,-4 -9,-2 -16,-6 -21,-11 -6,-5 -9,-11 -10,-17 -1,-6 -2,-16 -2,-31l0 -25c0,-14 1,-25 2,-31 1,-6 4,-11 9,-16 5,-5 12,-9 21,-12 9,-3 19,-4 31,-4 11,0 21,1 30,4 9,2 16,6 22,11 5,5 8,11 9,17 2,6 2,16 2,31l0 25zm-54 -48c0,-6 -1,-11 -2,-13 -1,-2 -3,-2 -7,-2 -2,0 -5,0 -6,2 -2,1 -2,6 -2,13l0 68c0,8 0,13 1,15 1,2 3,3 7,3 4,0 6,-1 7,-3 1,-2 2,-8 2,-16l0 -67zm269 -37l0 145 -47 0 -29 -66 0 66 -45 0 0 -145 45 0 31 65 0 -65 45 0zm190 0l31 145 -56 0 -3 -26 -19 0 -3 26 -56 0 27 -145 79 0zm-29 93c-3,-16 -6,-36 -8,-61 -6,28 -9,48 -11,61l19 0zm197 -93l0 116 33 0 0 29 -87 0 0 -145 54 0z"/>
    </g>
   </g>
   <g id="_237767648">
    <path class="fil9" d="M1602 15l44 0c7,0 13,3 17,7 4,4 6,9 6,16 0,5 -2,10 -5,13 -1,3 -4,5 -8,6 6,2 10,4 12,8 3,4 4,9 4,14 0,5 -1,9 -3,13 -1,4 -4,7 -7,9 -2,1 -5,2 -9,3 -5,0 -9,1 -11,1l-40 0 0 -90zm23 36l11 0c3,0 6,-1 7,-3 2,-1 3,-3 3,-6 0,-3 -1,-5 -3,-6 -1,-2 -4,-2 -7,-2l-11 0 0 17zm0 35l12 0c5,0 7,-1 9,-3 2,-2 3,-4 3,-7 0,-2 -1,-4 -3,-6 -2,-2 -4,-2 -9,-2l-12 0 0 18zm61 -71l23 0 0 90 -23 0 0 -90zm40 90l0 -90 40 0c7,0 13,1 17,3 3,1 7,4 9,8 2,4 4,9 4,14 0,5 -1,9 -3,13 -2,4 -5,7 -8,9 -2,1 -4,2 -8,3 3,1 5,3 6,4 1,0 2,2 4,4 2,3 3,5 3,6l12 26 -27 0 -13 -27c-1,-4 -3,-6 -4,-7 -2,-2 -4,-2 -6,-2l-2 0 0 36 -24 0zm24 -53l10 0c1,0 3,-1 6,-2 2,0 3,-1 4,-2 1,-2 2,-4 2,-6 0,-2 -1,-5 -3,-6 -1,-2 -4,-3 -8,-3l-11 0 0 19zm59 -37l64 0 0 20 -40 0 0 14 37 0 0 18 -37 0 0 18 41 0 0 20 -65 0 0 -90zm78 0l22 0 28 50 0 -50 23 0 0 90 -23 0 -28 -49 0 49 -22 0 0 -90zm124 0l39 0c9,0 15,3 19,8 5,4 7,11 7,20 0,9 -2,16 -7,21 -5,5 -12,8 -21,8l-13 0 0 33 -24 0 0 -90zm24 39l5 0c5,0 8,-1 10,-3 2,-2 3,-4 3,-7 0,-3 -1,-6 -3,-7 -1,-2 -4,-3 -9,-3l-6 0 0 20zm91 36l-27 0 -3 15 -25 0 29 -90 26 0 29 90 -25 0 -4 -15zm-5 -19l-8 -32 -9 32 17 0zm29 -56l71 0 0 23 -24 0 0 67 -23 0 0 -67 -24 0 0 -23zm82 0l63 0 0 20 -39 0 0 14 36 0 0 18 -36 0 0 18 40 0 0 20 -64 0 0 -90zm77 0l24 0 0 68 37 0 0 22 -61 0 0 -90z"/>
    <path class="fil9" d="M2432 14l14 0c-5,12 -8,23 -10,33 -2,8 -3,17 -3,27 0,18 4,38 13,57l-14 0c-6,-11 -11,-21 -14,-30 -3,-9 -4,-19 -4,-29 0,-10 2,-20 4,-29 3,-9 8,-19 14,-29zm26 1l44 0c7,0 13,3 17,7 4,4 6,9 6,16 0,5 -2,10 -4,13 -2,3 -5,5 -9,6 6,2 10,4 13,8 2,4 3,9 3,14 0,5 -1,9 -2,13 -2,4 -5,7 -8,9 -2,1 -5,2 -9,3 -5,0 -9,1 -10,1l-41 0 0 -90zm24 36l10 0c4,0 6,-1 8,-3 1,-1 2,-3 2,-6 0,-3 -1,-5 -2,-6 -2,-2 -4,-2 -8,-2l-10 0 0 17zm0 35l12 0c4,0 7,-1 8,-3 2,-2 3,-4 3,-7 0,-2 -1,-4 -3,-6 -1,-2 -4,-2 -8,-2l-12 0 0 18zm104 4l-27 0 -4 15 -24 0 29 -90 26 0 28 90 -24 0 -4 -15zm-5 -19l-8 -32 -9 32 17 0zm28 -56l24 0 18 65 16 -65 24 0 -28 90 -26 0 -28 -90zm90 0l24 0 0 68 37 0 0 22 -61 0 0 -90zm119 75l-27 0 -4 15 -24 0 29 -90 25 0 29 90 -25 0 -3 -15zm-5 -19l-9 -32 -8 32 17 0zm104 -56l22 0 9 50 11 -50 23 0 12 50 8 -50 22 0 -17 90 -23 0 -13 -56 -14 56 -23 0 -17 -90zm162 75l-27 0 -4 15 -24 0 29 -90 26 0 28 90 -24 0 -4 -15zm-5 -19l-9 -32 -8 32 17 0zm41 -56l23 0 0 68 37 0 0 22 -60 0 0 -90zm118 75l-27 0 -3 15 -25 0 29 -90 26 0 29 90 -25 0 -4 -15zm-5 -19l-8 -32 -9 32 17 0zm51 -57l-13 0c4,12 7,23 9,33 2,8 3,17 3,27 0,18 -4,38 -12,57l13 0c7,-11 11,-21 14,-30 3,-9 4,-19 4,-29 0,-10 -1,-20 -4,-29 -3,-9 -8,-19 -14,-29z"/>
   </g>
  </g>
 </g>
</svg>
